<?xml version="1.0" standalone="no"?>
<!DOCTYPE svg PUBLIC "-//W3C//DTD SVG 20010904//EN"
 "http://www.w3.org/TR/2001/REC-SVG-20010904/DTD/svg10.dtd">
<svg version="1.0" xmlns="http://www.w3.org/2000/svg"
 width="828.000000pt" height="820.000000pt" viewBox="0 0 828.000000 820.000000"
 preserveAspectRatio="xMidYMid meet">
<metadata>
Created by potrace 1.16, written by Peter Selinger 2001-2019
</metadata>
<g transform="translate(0.000000,820.000000) scale(0.100000,-0.100000)"
fill="#000000" stroke="none">
<path d="M3961 7821 l-175 -138 -200 103 -201 103 -139 -166 c-77 -91 -145
-167 -152 -170 -11 -4 -115 24 -401 106 l-32 9 -97 -176 c-54 -98 -103 -186
-110 -197 -13 -21 -14 -21 -221 -3 -114 9 -215 17 -223 17 -11 1 -34 -57 -84
-214 -38 -118 -74 -215 -80 -215 -22 0 -429 -50 -432 -52 -1 -2 -14 -102 -29
-223 -14 -120 -27 -220 -28 -221 -1 -1 -96 -32 -212 -69 -115 -37 -211 -68
-212 -69 -1 -1 6 -101 17 -221 10 -121 16 -223 14 -226 -2 -4 -88 -53 -190
-109 -102 -57 -188 -109 -191 -115 -2 -7 20 -100 50 -206 31 -107 57 -201 59
-210 2 -10 -56 -66 -164 -158 -93 -78 -168 -147 -168 -152 0 -5 45 -96 100
-203 l100 -193 -140 -177 -141 -177 140 -176 140 -177 -101 -198 -101 -198 69
-69 c38 -37 77 -72 86 -77 9 -5 54 -41 101 -81 l85 -72 -59 -203 c-32 -112
-59 -210 -59 -219 0 -9 17 -24 39 -34 26 -11 41 -25 43 -39 2 -14 21 -30 58
-48 30 -15 99 -51 153 -80 l98 -53 -6 -35 c-2 -19 -9 -93 -15 -165 -6 -71 -12
-151 -15 -176 l-5 -46 44 -13 c42 -11 45 -14 40 -40 -6 -25 -3 -28 43 -40 47
-12 306 -91 310 -94 1 0 4 -30 7 -66 4 -36 13 -121 21 -190 8 -69 15 -128 15
-132 0 -3 15 -10 33 -13 36 -8 47 -20 47 -52 0 -24 22 -31 98 -32 56 -1 280
-29 292 -36 5 -3 14 -25 20 -48 6 -23 30 -102 52 -174 40 -129 42 -133 69
-133 24 0 30 -6 41 -41 l12 -41 45 6 c25 4 118 13 206 21 l160 15 17 -23 c10
-12 23 -35 30 -52 6 -16 39 -79 71 -138 47 -84 63 -106 77 -102 12 4 22 -5 35
-35 22 -50 29 -54 56 -39 12 6 105 35 208 64 l186 54 37 -42 c20 -23 37 -45
38 -49 0 -8 121 -147 182 -210 25 -25 50 -43 54 -38 23 21 386 201 397 197 6
-3 86 -64 176 -136 90 -72 167 -131 170 -131 3 0 80 59 171 131 91 72 170 133
177 136 6 2 100 -41 208 -97 108 -56 197 -101 199 -99 16 23 279 330 286 334
5 3 104 -22 221 -55 116 -34 212 -60 214 -58 1 2 45 82 99 179 53 97 102 184
109 193 12 17 23 17 203 2 104 -9 204 -16 222 -16 l31 0 67 207 c37 115 70
210 75 213 4 3 105 16 223 29 l215 24 5 36 c8 49 46 379 46 397 0 9 69 36 208
80 114 37 210 69 214 73 4 4 0 105 -10 224 -12 150 -14 221 -7 226 5 5 89 52
185 106 96 53 179 101 184 106 9 8 -9 78 -93 370 l-19 66 169 143 c93 78 169
146 169 151 0 5 -45 96 -100 202 l-100 194 140 176 139 176 -139 176 -139 177
48 96 c27 53 74 144 105 201 l56 104 -87 84 c-48 47 -119 109 -158 138 -39 29
-77 60 -84 69 -10 12 -4 47 40 203 28 103 56 192 60 197 17 19 8 35 -31 57
-23 13 -40 30 -40 41 0 19 -44 47 -207 131 -101 51 -103 53 -103 87 1 56 28
343 35 366 6 18 0 23 -40 34 -42 12 -46 15 -40 39 6 27 4 27 -137 71 -79 25
-145 45 -148 45 -44 6 -71 20 -75 38 -8 38 -35 294 -35 335 0 38 -1 40 -40 46
-37 6 -40 8 -40 40 0 40 12 37 -228 62 l-173 19 -38 125 c-21 69 -45 147 -53
175 -12 43 -18 51 -43 55 -23 4 -31 12 -39 40 -5 19 -10 36 -11 38 -3 4 -374
-27 -400 -34 -17 -4 -29 12 -76 98 -31 57 -68 128 -83 159 -20 41 -33 55 -45
52 -11 -2 -24 10 -41 40 l-25 44 -200 -57 c-110 -32 -206 -59 -214 -61 -7 -2
-47 37 -91 91 -43 52 -96 113 -117 135 -20 22 -51 56 -69 76 l-31 37 -200
-102 -201 -103 -174 138 c-95 76 -175 139 -178 139 -3 0 -83 -63 -179 -139z
m340 -211 c77 -60 147 -115 157 -121 15 -10 46 3 184 75 100 52 177 86 195 86
26 0 45 -19 157 -150 70 -82 132 -150 138 -150 6 0 87 23 180 51 95 28 183 49
201 47 30 -3 37 -12 127 -176 l95 -173 80 5 c235 18 330 19 341 5 6 -8 39 -98
73 -201 48 -143 67 -188 79 -189 9 0 97 -8 195 -18 129 -13 183 -22 194 -34
11 -11 22 -72 39 -212 13 -109 25 -200 28 -202 2 -2 86 -29 187 -59 101 -31
190 -60 197 -66 16 -14 15 -77 -4 -271 -9 -89 -12 -163 -7 -164 4 -2 82 -45
173 -96 155 -87 165 -94 168 -124 2 -17 -17 -106 -42 -197 -25 -92 -46 -173
-46 -181 0 -8 68 -71 150 -141 131 -112 150 -131 150 -157 0 -18 -34 -95 -86
-194 -47 -91 -83 -170 -81 -176 3 -7 57 -75 121 -152 87 -105 115 -147 116
-169 0 -21 -29 -66 -122 -184 l-122 -156 87 -167 c53 -102 87 -179 87 -197 0
-27 -18 -46 -150 -157 -85 -72 -150 -133 -150 -143 0 -9 20 -89 45 -177 25
-88 45 -175 45 -192 0 -38 -2 -40 -208 -153 -74 -40 -136 -78 -138 -85 -3 -6
2 -80 11 -165 19 -189 19 -244 1 -259 -7 -6 -96 -36 -196 -66 -101 -30 -185
-56 -186 -58 -2 -2 -15 -93 -28 -202 -20 -167 -27 -202 -44 -215 -13 -11 -73
-21 -208 -34 -104 -10 -190 -19 -192 -21 -2 -2 -31 -88 -65 -191 -53 -160 -67
-191 -87 -200 -19 -9 -70 -8 -209 3 -115 9 -188 10 -193 5 -6 -6 -49 -81 -98
-168 -58 -105 -96 -163 -112 -171 -21 -11 -49 -5 -206 42 -99 30 -185 55 -191
55 -5 0 -67 -67 -136 -150 -70 -82 -135 -152 -146 -155 -12 -4 -80 25 -199 85
l-180 92 -142 -113 c-79 -62 -156 -119 -171 -127 -34 -17 -34 -17 -215 131
l-134 110 -179 -92 c-125 -65 -185 -90 -199 -86 -11 4 -77 74 -146 156 -70 82
-131 149 -137 149 -6 0 -94 -25 -195 -55 -165 -50 -186 -54 -206 -42 -11 8
-61 87 -111 177 -49 89 -95 164 -100 167 -6 2 -94 -3 -195 -11 -160 -12 -188
-12 -207 0 -17 10 -37 60 -83 204 -59 184 -62 190 -88 191 -15 0 -102 8 -195
18 -126 13 -171 21 -184 34 -12 12 -23 64 -39 199 -13 101 -23 190 -23 199 -1
12 -46 29 -179 69 -203 60 -210 63 -221 93 -5 13 0 104 10 212 18 179 18 191
2 203 -9 7 -84 49 -166 95 -83 45 -156 91 -163 103 -12 18 -8 43 36 205 27
101 50 189 50 195 0 7 -67 68 -149 138 -82 69 -152 135 -156 146 -5 14 21 73
86 199 l92 179 -110 138 c-136 172 -145 186 -137 210 4 10 61 86 126 167 l120
148 -92 180 c-60 118 -89 186 -85 198 3 11 73 76 155 146 83 69 150 132 150
139 0 7 -22 93 -50 191 -42 153 -47 183 -37 203 8 16 67 55 171 112 87 49 162
92 167 97 8 8 -5 192 -25 360 -8 67 6 76 213 138 101 30 186 56 188 58 1 2 13
90 25 197 16 136 27 199 38 213 14 17 42 22 196 38 98 10 187 18 196 18 14 1
31 43 78 190 33 104 67 195 76 201 11 10 49 11 162 4 81 -4 172 -8 202 -9 l55
0 75 135 c120 217 115 210 150 210 17 0 106 -22 197 -50 91 -27 172 -50 179
-50 7 0 70 68 139 150 111 132 130 150 157 150 18 0 95 -34 197 -87 l167 -87
150 122 c112 91 156 121 178 122 21 0 62 -27 167 -110z"/>
<path d="M3990 7469 c-74 -61 -145 -115 -156 -121 -18 -8 -51 5 -198 80 l-177
90 -125 -148 c-69 -82 -132 -151 -141 -154 -8 -4 -98 18 -199 49 -101 30 -185
55 -187 55 -3 0 -45 -73 -93 -161 -49 -89 -98 -167 -109 -174 -16 -11 -52 -11
-204 1 -102 8 -188 11 -192 7 -4 -5 -32 -87 -64 -183 -31 -96 -64 -182 -74
-190 -13 -11 -72 -21 -202 -33 -101 -10 -185 -20 -187 -21 -2 -2 -14 -90 -26
-196 -15 -121 -29 -197 -38 -206 -7 -8 -94 -38 -193 -68 l-180 -54 1 -33 c0
-19 6 -107 14 -197 9 -107 11 -169 4 -179 -5 -8 -81 -55 -169 -104 -88 -49
-161 -93 -163 -98 -2 -5 17 -83 42 -173 25 -90 46 -178 46 -195 0 -28 -16 -45
-150 -158 l-151 -127 86 -163 c47 -90 85 -175 85 -190 0 -21 -31 -66 -119
-175 l-119 -146 119 -150 c88 -111 118 -156 119 -178 0 -18 -33 -93 -85 -192
l-85 -163 150 -127 c131 -112 150 -131 150 -157 0 -17 -20 -104 -45 -195 -25
-91 -44 -169 -43 -174 2 -5 77 -50 168 -101 l165 -92 3 -48 c2 -26 -4 -118
-12 -204 -9 -87 -13 -160 -9 -164 5 -3 87 -30 183 -58 96 -29 181 -58 189 -66
8 -8 22 -82 36 -205 13 -105 25 -193 27 -196 3 -2 89 -12 192 -23 106 -10 192
-23 199 -30 7 -6 39 -94 73 -194 l61 -182 109 5 c60 3 152 5 204 5 l95 0 91
-162 c49 -89 93 -165 96 -168 3 -4 82 16 176 44 93 28 182 51 199 51 26 0 45
-19 157 -150 l127 -150 163 85 c98 51 174 85 192 85 22 -1 64 -29 174 -119
l145 -119 40 32 c194 156 265 206 290 206 15 0 101 -38 190 -85 l163 -86 127
151 c111 131 130 150 156 150 17 0 105 -22 196 -50 91 -27 169 -50 173 -50 5
0 41 60 81 133 40 72 83 150 97 171 l24 39 152 -8 c83 -5 173 -9 201 -9 l49
-1 58 179 c31 99 64 186 72 194 10 10 70 20 202 33 103 11 189 20 190 22 2 2
14 90 27 196 16 127 28 197 38 206 8 8 93 38 189 66 96 29 178 55 182 58 4 3
-1 92 -12 196 -15 157 -16 193 -5 210 7 11 85 60 174 109 88 48 161 91 161 95
0 4 -23 89 -50 188 -28 100 -47 188 -44 197 3 8 72 71 154 140 l148 125 -90
177 c-75 147 -88 180 -80 198 5 11 60 84 121 161 61 77 111 145 111 150 -1 6
-52 73 -115 150 -63 77 -118 148 -121 158 -3 11 29 83 85 192 l90 174 -145
122 c-80 67 -149 130 -154 140 -7 13 3 67 40 201 27 101 50 185 50 189 0 3
-73 46 -161 95 -89 49 -167 98 -175 109 -10 16 -9 54 6 210 10 104 17 191 15
193 -2 3 -84 28 -181 58 -98 29 -184 60 -193 68 -10 11 -22 75 -38 207 -13
106 -24 194 -26 195 -1 1 -83 10 -182 20 -105 10 -189 22 -202 30 -17 11 -36
56 -79 191 -31 98 -59 181 -63 186 -4 4 -90 1 -192 -7 -150 -12 -188 -12 -204
-2 -11 7 -57 80 -103 162 -45 82 -86 155 -91 162 -7 11 -45 3 -195 -42 -140
-42 -191 -54 -205 -47 -10 6 -73 75 -140 155 l-122 144 -175 -90 c-147 -76
-179 -89 -197 -80 -12 5 -85 60 -162 121 -77 61 -144 111 -150 111 -5 -1 -71
-50 -145 -111z m2691 -2005 c11 -42 13 -45 39 -39 l27 6 46 -173 c29 -109 66
-299 102 -513 30 -187 63 -364 72 -393 16 -49 19 -52 43 -47 26 6 27 5 60
-120 18 -72 29 -130 24 -134 -7 -6 -233 -71 -248 -71 -2 0 -9 21 -15 46 -11
43 -13 45 -41 39 -27 -6 -30 -4 -39 32 -6 21 -21 80 -35 131 l-25 93 22 8 c12
5 37 12 55 16 37 8 37 10 17 59 -13 31 -19 35 -39 30 -22 -5 -28 8 -150 334
-72 192 -147 410 -171 503 -25 89 -43 164 -42 165 5 6 252 72 269 73 13 1 21
-12 29 -45z m-582 -152 c11 -45 14 -48 40 -44 27 4 28 3 54 -100 28 -105 31
-128 21 -128 -10 0 -717 -191 -725 -195 -9 -6 47 -210 57 -208 5 0 146 38 312
82 167 45 308 81 313 81 5 0 14 -20 20 -46 11 -42 13 -45 39 -39 27 6 28 5 49
-77 12 -46 26 -96 32 -112 5 -16 7 -31 6 -33 -2 -2 -157 -44 -343 -94 -186
-50 -341 -92 -343 -95 -5 -4 59 -248 70 -265 6 -10 87 8 363 82 l356 95 10
-35 c5 -20 10 -42 10 -48 0 -8 10 -11 29 -7 28 6 30 4 41 -37 7 -24 20 -75 31
-113 10 -38 18 -71 16 -72 -1 -1 -236 -65 -522 -142 l-520 -139 -13 44 c-13
42 -16 45 -42 39 -22 -4 -30 -1 -34 12 -21 69 -366 1365 -364 1367 3 2 1008
272 1019 274 3 1 11 -21 18 -47z m-1288 -348 c11 -42 13 -45 39 -39 27 6 28 5
49 -77 12 -46 26 -96 32 -112 5 -16 7 -31 5 -34 -3 -2 -168 -48 -368 -101
-246 -66 -364 -102 -366 -112 -2 -14 43 -187 51 -195 2 -2 145 34 318 80 172
46 317 82 320 80 4 -2 10 -23 14 -45 7 -38 9 -41 36 -37 20 3 30 0 33 -11 24
-82 57 -213 54 -215 -2 -1 -154 -42 -338 -91 -184 -49 -338 -91 -342 -95 -6
-4 57 -268 66 -278 2 -1 162 40 357 93 194 52 357 91 360 87 4 -4 11 -23 16
-42 8 -30 14 -35 38 -35 27 -1 29 -4 57 -109 16 -60 25 -112 21 -116 -7 -6
-1019 -280 -1035 -280 -3 0 -11 20 -17 45 -10 42 -13 44 -40 39 -27 -6 -29 -4
-45 58 -252 932 -351 1314 -342 1318 21 9 981 268 998 269 13 1 21 -11 29 -45z
m-1406 -423 c69 -33 218 -179 253 -247 62 -121 67 -260 13 -369 -31 -62 -99
-135 -148 -158 -13 -6 -23 -13 -23 -17 0 -4 22 -21 49 -39 62 -40 194 -156
379 -336 l144 -139 -166 -44 -166 -44 -101 89 c-378 330 -410 353 -499 353
-63 0 -180 -28 -180 -44 0 -6 31 -128 69 -271 39 -143 71 -268 73 -279 3 -16
-14 -23 -122 -52 -69 -19 -130 -34 -137 -34 -7 0 -17 18 -23 41 -10 38 -14 41
-41 37 -16 -3 -29 -4 -29 -4 0 1 -83 312 -185 691 -101 379 -183 690 -182 691
6 5 660 178 717 189 36 7 106 14 155 14 80 1 97 -2 150 -28z m-1240 -286 c10
-35 14 -40 38 -37 24 2 28 -2 42 -53 8 -30 22 -80 31 -111 8 -31 13 -58 10
-61 -3 -3 -148 -43 -323 -90 -175 -47 -322 -89 -327 -93 -7 -7 37 -209 49
-228 2 -2 454 117 504 133 18 5 22 0 32 -40 11 -44 14 -47 40 -43 16 3 29 3
29 1 0 -1 14 -53 30 -114 17 -62 29 -113 28 -114 -2 -1 -127 -35 -278 -75
-151 -40 -279 -76 -284 -81 -7 -6 45 -216 141 -570 4 -13 -19 -22 -119 -49
-68 -18 -130 -35 -139 -37 -12 -4 -19 7 -28 42 -11 44 -13 46 -40 40 -28 -6
-29 -4 -45 57 -10 35 -93 344 -185 688 -92 344 -166 627 -165 629 7 8 910 249
928 248 13 -2 23 -14 31 -42z"/>
<path d="M3055 4195 c-93 -25 -189 -50 -213 -56 -30 -8 -42 -16 -38 -26 3 -7
13 -42 21 -76 9 -34 23 -85 31 -114 l15 -51 112 29 c261 69 325 102 348 179
14 45 4 123 -16 140 -31 26 -90 20 -260 -25z"/>
</g>
</svg>
